<mxfile host="Electron" agent="Mozilla/5.0 (Windows NT 10.0; Win64; x64) AppleWebKit/537.36 (KHTML, like Gecko) draw.io/27.0.9 Chrome/134.0.6998.205 Electron/35.4.0 Safari/537.36" version="27.0.9">
  <diagram name="Page-1" id="VYEkGQg2rX3dRALxSbze">
    <mxGraphModel dx="2162" dy="1412" grid="1" gridSize="10" guides="1" tooltips="1" connect="1" arrows="1" fold="1" page="0" pageScale="1" pageWidth="850" pageHeight="1100" math="0" shadow="0">
      <root>
        <mxCell id="0" />
        <mxCell id="1" parent="0" />
        <mxCell id="dTkZVViNrFkLWlmM08d8-67" value="" style="edgeStyle=orthogonalEdgeStyle;rounded=0;orthogonalLoop=1;jettySize=auto;html=1;" parent="1" source="dTkZVViNrFkLWlmM08d8-55" target="dTkZVViNrFkLWlmM08d8-56" edge="1">
          <mxGeometry relative="1" as="geometry" />
        </mxCell>
        <mxCell id="dTkZVViNrFkLWlmM08d8-55" value="&lt;b&gt;MULAI&lt;/b&gt;" style="ellipse;whiteSpace=wrap;html=1;fillColor=#FF9999;strokeColor=#000000;" parent="1" vertex="1">
          <mxGeometry x="640" y="130" width="120" height="80" as="geometry" />
        </mxCell>
        <mxCell id="dTkZVViNrFkLWlmM08d8-68" value="" style="edgeStyle=orthogonalEdgeStyle;rounded=0;orthogonalLoop=1;jettySize=auto;html=1;" parent="1" source="dTkZVViNrFkLWlmM08d8-56" target="dTkZVViNrFkLWlmM08d8-58" edge="1">
          <mxGeometry relative="1" as="geometry" />
        </mxCell>
        <mxCell id="dTkZVViNrFkLWlmM08d8-87" value="Iya" style="edgeLabel;html=1;align=center;verticalAlign=middle;resizable=0;points=[];" parent="dTkZVViNrFkLWlmM08d8-68" vertex="1" connectable="0">
          <mxGeometry x="-0.1669" relative="1" as="geometry">
            <mxPoint as="offset" />
          </mxGeometry>
        </mxCell>
        <mxCell id="dTkZVViNrFkLWlmM08d8-78" value="" style="edgeStyle=orthogonalEdgeStyle;rounded=0;orthogonalLoop=1;jettySize=auto;html=1;" parent="1" source="dTkZVViNrFkLWlmM08d8-56" target="dTkZVViNrFkLWlmM08d8-57" edge="1">
          <mxGeometry relative="1" as="geometry" />
        </mxCell>
        <mxCell id="dTkZVViNrFkLWlmM08d8-86" value="Tidak" style="edgeLabel;html=1;align=center;verticalAlign=middle;resizable=0;points=[];" parent="dTkZVViNrFkLWlmM08d8-78" vertex="1" connectable="0">
          <mxGeometry x="-0.0447" y="-1" relative="1" as="geometry">
            <mxPoint as="offset" />
          </mxGeometry>
        </mxCell>
        <mxCell id="dTkZVViNrFkLWlmM08d8-56" value="PUNYA&lt;div&gt;AKUN&lt;/div&gt;" style="rhombus;whiteSpace=wrap;html=1;fillColor=#FFFF99;" parent="1" vertex="1">
          <mxGeometry x="820" y="130" width="110" height="80" as="geometry" />
        </mxCell>
        <mxCell id="dTkZVViNrFkLWlmM08d8-57" value="REGISTRASI&amp;nbsp;&lt;div&gt;USER&lt;/div&gt;" style="shape=parallelogram;perimeter=parallelogramPerimeter;whiteSpace=wrap;html=1;fixedSize=1;fillColor=#CCFFCC;" parent="1" vertex="1">
          <mxGeometry x="815" y="30" width="120" height="60" as="geometry" />
        </mxCell>
        <mxCell id="dTkZVViNrFkLWlmM08d8-69" value="" style="edgeStyle=orthogonalEdgeStyle;rounded=0;orthogonalLoop=1;jettySize=auto;html=1;" parent="1" source="dTkZVViNrFkLWlmM08d8-58" target="dTkZVViNrFkLWlmM08d8-59" edge="1">
          <mxGeometry relative="1" as="geometry" />
        </mxCell>
        <mxCell id="dTkZVViNrFkLWlmM08d8-58" value="LOGIN USER" style="shape=parallelogram;perimeter=parallelogramPerimeter;whiteSpace=wrap;html=1;fixedSize=1;fillColor=#CCFFCC;" parent="1" vertex="1">
          <mxGeometry x="990" y="140" width="120" height="60" as="geometry" />
        </mxCell>
        <mxCell id="dTkZVViNrFkLWlmM08d8-70" style="edgeStyle=orthogonalEdgeStyle;rounded=0;orthogonalLoop=1;jettySize=auto;html=1;" parent="1" source="dTkZVViNrFkLWlmM08d8-59" target="dTkZVViNrFkLWlmM08d8-60" edge="1">
          <mxGeometry relative="1" as="geometry" />
        </mxCell>
        <mxCell id="dTkZVViNrFkLWlmM08d8-59" value="MASUK DASHBOARD" style="rounded=0;whiteSpace=wrap;html=1;fillColor=#99CCFF;" parent="1" vertex="1">
          <mxGeometry x="1170" y="140" width="120" height="60" as="geometry" />
        </mxCell>
        <mxCell id="dTkZVViNrFkLWlmM08d8-71" value="" style="edgeStyle=orthogonalEdgeStyle;rounded=0;orthogonalLoop=1;jettySize=auto;html=1;" parent="1" source="dTkZVViNrFkLWlmM08d8-60" target="dTkZVViNrFkLWlmM08d8-61" edge="1">
          <mxGeometry relative="1" as="geometry" />
        </mxCell>
        <mxCell id="dTkZVViNrFkLWlmM08d8-60" value="PILIH RUANG RAPAT" style="shape=parallelogram;perimeter=parallelogramPerimeter;whiteSpace=wrap;html=1;fixedSize=1;fillColor=#CCFFCC;" parent="1" vertex="1">
          <mxGeometry x="1170" y="370" width="120" height="60" as="geometry" />
        </mxCell>
        <mxCell id="dTkZVViNrFkLWlmM08d8-72" value="" style="edgeStyle=orthogonalEdgeStyle;rounded=0;orthogonalLoop=1;jettySize=auto;html=1;" parent="1" source="dTkZVViNrFkLWlmM08d8-61" target="dTkZVViNrFkLWlmM08d8-62" edge="1">
          <mxGeometry relative="1" as="geometry" />
        </mxCell>
        <mxCell id="dTkZVViNrFkLWlmM08d8-61" value="MASUKKAN&amp;nbsp;&lt;div&gt;TANGGAL DAN WAKTU&lt;/div&gt;" style="shape=parallelogram;perimeter=parallelogramPerimeter;whiteSpace=wrap;html=1;fixedSize=1;fillColor=#CCFFCC;" parent="1" vertex="1">
          <mxGeometry x="990" y="370" width="120" height="60" as="geometry" />
        </mxCell>
        <mxCell id="dTkZVViNrFkLWlmM08d8-73" value="" style="edgeStyle=orthogonalEdgeStyle;rounded=0;orthogonalLoop=1;jettySize=auto;html=1;" parent="1" source="dTkZVViNrFkLWlmM08d8-62" target="dTkZVViNrFkLWlmM08d8-63" edge="1">
          <mxGeometry relative="1" as="geometry" />
        </mxCell>
        <mxCell id="dTkZVViNrFkLWlmM08d8-62" value="BOOKING" style="rounded=0;whiteSpace=wrap;html=1;fillColor=#99CCFF;" parent="1" vertex="1">
          <mxGeometry x="820" y="370" width="110" height="60" as="geometry" />
        </mxCell>
        <mxCell id="dTkZVViNrFkLWlmM08d8-74" value="" style="edgeStyle=orthogonalEdgeStyle;rounded=0;orthogonalLoop=1;jettySize=auto;html=1;" parent="1" source="dTkZVViNrFkLWlmM08d8-63" target="dTkZVViNrFkLWlmM08d8-65" edge="1">
          <mxGeometry relative="1" as="geometry" />
        </mxCell>
        <mxCell id="dTkZVViNrFkLWlmM08d8-88" value="Iya" style="edgeLabel;html=1;align=center;verticalAlign=middle;resizable=0;points=[];" parent="dTkZVViNrFkLWlmM08d8-74" vertex="1" connectable="0">
          <mxGeometry x="-0.1105" y="-1" relative="1" as="geometry">
            <mxPoint as="offset" />
          </mxGeometry>
        </mxCell>
        <mxCell id="dTkZVViNrFkLWlmM08d8-76" value="" style="edgeStyle=orthogonalEdgeStyle;rounded=0;orthogonalLoop=1;jettySize=auto;html=1;" parent="1" source="dTkZVViNrFkLWlmM08d8-63" target="dTkZVViNrFkLWlmM08d8-64" edge="1">
          <mxGeometry relative="1" as="geometry" />
        </mxCell>
        <mxCell id="dTkZVViNrFkLWlmM08d8-89" value="Tidak" style="edgeLabel;html=1;align=center;verticalAlign=middle;resizable=0;points=[];" parent="dTkZVViNrFkLWlmM08d8-76" vertex="1" connectable="0">
          <mxGeometry x="-0.1236" y="1" relative="1" as="geometry">
            <mxPoint as="offset" />
          </mxGeometry>
        </mxCell>
        <mxCell id="dTkZVViNrFkLWlmM08d8-63" value="RUANG TERSEDIA" style="rhombus;whiteSpace=wrap;html=1;fillColor=#FFFF99;" parent="1" vertex="1">
          <mxGeometry x="649.88" y="360" width="100.25" height="80" as="geometry" />
        </mxCell>
        <mxCell id="dTkZVViNrFkLWlmM08d8-77" style="edgeStyle=orthogonalEdgeStyle;rounded=0;orthogonalLoop=1;jettySize=auto;html=1;entryX=0.5;entryY=0;entryDx=0;entryDy=0;" parent="1" source="dTkZVViNrFkLWlmM08d8-64" target="dTkZVViNrFkLWlmM08d8-60" edge="1">
          <mxGeometry relative="1" as="geometry" />
        </mxCell>
        <mxCell id="dTkZVViNrFkLWlmM08d8-64" value="RUANG SUDAH&lt;div&gt;DI BOOKING&lt;/div&gt;" style="rounded=0;whiteSpace=wrap;html=1;fillColor=#99CCFF;" parent="1" vertex="1">
          <mxGeometry x="640" y="260" width="120" height="60" as="geometry" />
        </mxCell>
        <mxCell id="dTkZVViNrFkLWlmM08d8-75" value="" style="edgeStyle=orthogonalEdgeStyle;rounded=0;orthogonalLoop=1;jettySize=auto;html=1;" parent="1" source="dTkZVViNrFkLWlmM08d8-65" target="dTkZVViNrFkLWlmM08d8-66" edge="1">
          <mxGeometry relative="1" as="geometry" />
        </mxCell>
        <mxCell id="dTkZVViNrFkLWlmM08d8-65" value="SIMPAN DATA BOOKING" style="rounded=0;whiteSpace=wrap;html=1;fillColor=#99CCFF;" parent="1" vertex="1">
          <mxGeometry x="640" y="500" width="120" height="60" as="geometry" />
        </mxCell>
        <mxCell id="dTkZVViNrFkLWlmM08d8-66" value="&lt;b&gt;SELESAI&lt;/b&gt;" style="ellipse;whiteSpace=wrap;html=1;fillColor=#FF9999;" parent="1" vertex="1">
          <mxGeometry x="815" y="490" width="120" height="80" as="geometry" />
        </mxCell>
        <mxCell id="dTkZVViNrFkLWlmM08d8-79" style="edgeStyle=orthogonalEdgeStyle;rounded=0;orthogonalLoop=1;jettySize=auto;html=1;entryX=0.6;entryY=-0.008;entryDx=0;entryDy=0;entryPerimeter=0;" parent="1" source="dTkZVViNrFkLWlmM08d8-57" target="dTkZVViNrFkLWlmM08d8-58" edge="1">
          <mxGeometry relative="1" as="geometry" />
        </mxCell>
        <mxCell id="dTkZVViNrFkLWlmM08d8-90" value="" style="shape=image;verticalLabelPosition=bottom;labelBackgroundColor=default;verticalAlign=top;aspect=fixed;imageAspect=0;image=data:image/png,iVBORw0KGgoAAAANSUhEUgAAACkAAAA6CAYAAAAtInDDAAAAAXNSR0IArs4c6QAAAARnQU1BAACxjwv8YQUAAAAJcEhZcwAADsMAAA7DAcdvqGQAABCWSURBVGhDpVlpdFXVFd7Je3mZkSEhYZAECDFAAmFGKpVBQRyAVmikSxRt/7TaZaV/Wm1d+st2uWxXK6t/uvylq4isOlBlaQhSARmUISQEENBASEIGQpI3JC9vyOn37XPvS6QMwe5wuPees88+++z5nJdkAPL/AinERfqT+vWDJPuvQzYpKUmS2ZI9+HA6hwC3xSRRTX+/MsDFsJwujIdl1P7n/H8d4AD3kWw3oUwnc/LN4dYYg4CbdwknsZFBVyJ2UPlQSXIzaPhIzEtKtk0M8PqtxIcCty/JG6ArE/jTxZ0/7SeLzkYshv3oN9gAXociydtiUqUTh/FRgteA2pqBremH0whAj5u4ZRr/PEkewb/r0rgRfC9JXrt77ccGlEkMmSQyBDUPwlNbZkO/Z7C5DAG+P5OQkD/ol5bWFmlsbJT2tlYJ9/aqGpM9KZKZkSVjx+TKuDsnSG7uaElPSxuQnmoa7/z87n6vC8okF2ZLSMhhG+Yv0WhUUlJ8uuu+vrC0t7fL2bNn5UzdGfmm/ltlsqurS4KBgERjEaWTBH2mpaXLyBEjJDMrS8aMyZeJEydJydQSKSstlezMbPF6vcokzYDrUsp2rt1IJBqRVF+qfiuTcdgZkVJSUhRBw4Q+4sqkx+ORzs4uOXXqlBw+dEiOVx+XmhO1cvXqVfGl+mTUqFEyfPhwXVjjI/7F4/3iD4SkpblR95yXnyelpdNlwYK75e6F86WoqEiys7MTjPFJ0Hf8RSJ9kpaafg2TIJriS0kg40WJExobL8nhL7+U9/71nlRVVsLwk7HAMJk0caJMnz4di5fK5KIpkpmZIbEYtgYP7+kJyTlIvLq6Ws6f/1aaLzdJ59UOSMjIpk0b5eGHHpSZM8pkxMiRyggFwacuaoU5AGTSxNFi+mb6+vpMb2+vgQTJvAkEAub3L7xgSu66y2RlZprp06aaF373W/PVV1+ajo4OxY9EItpisZjO6enpMd3+bvRFTThs6R08eNA888yvTFr6MJOVPRJ0yswfX33VtLW1mjjmKeDRH4NVg8ZgSDgO41u8P672wS62trY2+feOD2TLlr8TQ5YsWSKPPLJaiqZMkby8PKgjVTdOXHosRAFJRklOPFC9B+mPaotGYwJmYTJXYc/n5M+v/0Xq6k5KSUmxPLFxo2x88kmVZDzG8Ia5eKcmE9GBTBLi8ZgJhYIqCdin8Xd3m8pPPzXz588zsCezefNmlUY3+olDIB4Im1gkpu9sMWiAEsWmVUNRSDgcDqtm2N/V1Wk++uhjs3bNj0xR0RTzk/XrzNmvT5sINOLiWLp4ch28DwoAMFBIoh/SBHm52tkpJ0+elCNHjsq0qdNk5cqVMnv2LMmCt7reSGAQT9gTv/Vd4OlRSDECXI86JMexonr9g6tWydo1qyU/b7TU1NTKgS++kN7eMGhZdri+8oInNaW9bmd6eoYuDqki7rXB4M8rA2tWr5YpULHH47XMAJ94bEjDlgoJ8lvnMypEpC/aR/JKHxJCi0sqTITRY8m9i2XevDkwgU7ZuxdMBnt188ocaFDVnEe6yiQ7GWoIPsQmjrW3t8mF+nqdOHvOPMS6MUqADBDfC+YHPNIyTSBxxtWMjEyVOgYdOxdllBDH3/g7CyHJcRLui0hTc4vEIJhrgVrCApZJEuGCDNbMzYx3Pl+aeLEYd3P5crMEg0GNDMqYs0syzMZ30mAjN26/SsX59noZ4NOUUeIFe4LS0xvS/uxhWaBpTYSb5RrUiDoOaZNJElOJgA0VNd5ycnNk0uTJ+r1//z5pbmoi6gAun+wAEQ3gTl8MDNHDXckSiE/G3Cc3VVNbK2fPnwOD2bD1ckn2Kit2owCXD9LUHnawUYLKPQby88eoo+QjU+zft08OHz4sLS0tCVw2UlF8h4YrVbKvCwD0G/QSmwO0t7dKVdUuOXPmaymcUCjz5y9Qh9LCA3+cQ4dh44wEk3QWd6eEUaNGypw5s2X58uXScKlBduzYIVW7q6SpqRExL6yOQQESn4003BSa4vNZlQHBZZzjCPJy4cIF2fPZbvlk507k+yDS5ELEyxIbNZDztR4FLmmSH5tmHQAxZIqQxjk3XjFz1NbWmrmzZ5mM9DTEtcnm1889Z+rr6zXTDAYwofM51/1mFvJr5okgPnaZyl27zOo1awzyvAETpqKiwhw9elTHiX89IB+acbhLxjByTikxrjG+0cgpiQMHDsj27dtlH9QeDAYEqVEKCpC3UTDMKp8FSUyVnJE5Eo1H1FRIh/OCwZDUna6Tk4iFJ2GDNYi7Z06fltG5efLoo4/Kw488pHk/PT1dYyrXpQYGA+n8TxVENaoHwxLY54H30bPr6urgQPvB6F45ceIEUlg/Kpt8GTt2rOTm5Modd7Asg12h+AiHIxIMhaQXHtyKeHu5uVnLuczMTJk9a5b84J57ZNHCRVJQWCDpGemqWvV6uLjaJAIpN6pRJA6bdiXJRsdhGCAyG+2DNaLXKeHoOMeOHUPw3SvNWLit7Yrm9y4E5EiUtmdjnes6Pl8ycny+jB49GtEiV4oQLe5btkyml5VJZnqmxUUV70WSADqcwzoauIGIqBHrHwMFhmPcYcRKTiLD4F5CUG86AjMZVUN2NtTd3SXHj7OurJH6+gvScvmyfA4pwwZlYuEkKS8vR0WeI+Wz58AkymX8+HGQZBZUiwrdWY+Nm4FI4IFgwzEVdWsyjHVwKFJkWwiEowaFrS0O2AVHUidwkz2eLBT8/oCOu98sw5AETGtri3lw1UOmsGCCeemlP6gzsF292onCBQ7p0OW86zlYb29PAofAftJmn5UngHaoYQB/tAPg2QHszA0xxKEkaD+0Y0qbjQk8My0LpZuPu06EENr4MARrZhotHhy6zN8cd32BNJiOGQZZ2qmzYN0U9CfjnO4oHQ1vlLSKWz8HYiYH2M9vN/4R+M3FWTcyY/B7YG+WDvHZr98JOjbna3Nw+SQdPfLqF+hjLk8MCUm6QKPFfm2ZxAO8A7oI+ljKKXNcGP163sY7P0I4MnADrJa0bzAoskOHn2TMaZQmQTeERpu0yUURHSbRmQSVEYkTeCyN98cQjmx5xcZ+Vu58J2GqhHk6CmKMADQBFMrQKMIH6HD8Vs3SZKay8ZWNAuJlAulxwyoQ5RFhwN6IWcmQWdoIJdLV1a2tuzuAKimqtGDkcuVKu54W4RhypaNDx9Phvcy/YYzDwW7ZAogcTA4hxGFXmmSKtpyammZDIFJtIgSpMZEDPiHVCAa/PntGtryxRc59U6+hCD6vUuQUSiIlBYTw1w9per2pKBjqEMBDkpOTI2MQ5IcCI3A2X7hggTz9s58jnuZCOD4bN8kzwhKZs5LkohQ9FrY8066sk4T7+gTnD2SRHjCA1turfbpzqLYPabST0oRkIxGqPi59SHHI7UNqUaiVhzYyZ9MxnA9/VDnUq06kkiRjrrgpSXtOSdLbik93VUoQqiGjnMwsQKfy4OnDOb0PlXUw1KNqeeutt5XZRYsWygMrV1l6NwMojmmxYMIEuQepkqFpsDPB19UUKTkFdOqTQRYSte+xqAkE/ehDlYI+4rARB1LQk6Ab6BmwFy9ebCZNmozz9J/sOf5WjUkEtJhEuCaTAgM7QfnhP/SrutGhqibQcdydQHCSlZmtsZDmwD6O2eDrU4ky17tmQskDCRJBUGcxc6uG1WlSvPkgXTorVU5a6t0sLrC2MqlujsjOMw56lRkikoA7ziCrRYdLAE8exlK8trziItlZmVq5uBu+FXAdNm6a8xN9CODeJPQhb+uFhY4AyLF7ZLVMO1nCDmLxAa/mGG1QPW8QHo/x0FJC6gngK5EdgC71wEd6nJtYB6Df7rU1/ikvzpgOuju6dqICP6/p4iJuI1OcQ+dipmKfK3GLTOa4SfTZHsUnE4Mh0ed067d9HRrortAikWhiQ5ScSgbN56NJ2N1wjNJW9THVcjPAdRmnWRBnKHBbTBJ47xhCyOHlUjLUq8UFbJKmEupBwZzslVQ4FTfD6odVDTNUNI4xFCF0DvbxuPAdk7gJ3BaT1ovjOCpkowi2hh1DjmdQpj4jfT3KgOvtfJJ5pjgyxDMP+xkPGWOvVfWN4LaYpHroYFS32hq0xYWYhY4eOw4MZKC+XjmHQ3919Qll2PV865j2XX8Ru9bAbwKelwHO+5CAzLE6Yjzjgi0trXLo0EH58IMPcZQ4IYGAH+mzV7rxBLJeOWs+hg0z1brRQTcJGIpdDhQYQwB1AseOSJzBe9euKtm2bRsYPIYUl6UM8XSJbCTFxVNkw083yLx586WwcCIq/2y9IEjPSKNrKbNDUjmZvF0Ao6a7229eefkVU1xcbDIyMkxpaZnZufMjc+lSg9m69R1z7w/vNdiItvXrfmwqKz/Rebx88AfshcFQ4bYlSU9taLgor732uh5tWakvunuR/OKXz8q0aSV60Kckz507L5VVu+SdrVtRDHfhtHinLF2yTDY++YRMLJggacAbquMkqiC3cSJVYUftQzMG3nnRxIurt/+5TfZ+vkcKCgpl2bKlsmLF/frThw8eDzvQKXSmxqYmvcXdvXu3HIdj8bg8d+48WbXqAUExIuPGjYetetReGT8T6qfY2Jw9WMchg7Q1ZwEGXQJTk9ohjP3ixQb5bM9nsv3dd2GHu2Xy5Emybt16Wbt2rcycOVPSEP+4EW6UK3iR00eMGC5FRZMlPz9ffAhDHVc65MiRI9J8uRmVvB+BX6xjsSABuJLl+upQ+EdNqSTJCIkzRLgxzvU6Fh3NzZfl4493yvvvvy+nT5+S0ulTZdNTT8vSpcv0Bpi7ZgESMzElyhDDBXl28fEiFnSam1tk//4vZNs7W6Wm9oRKmtct69etk2mgN6WoWCOGm5EYS/nUXzPwcl0AsvH7/aa+/lvz7DPPmoKCApM3Os88VlFhjh87pgf3cNheDBDoFO3tbXoTNxhYb/LgTzzS7Oi4Yv76tzdMaVmZijw3N9c8tmGDabh0SS8N+OsGfzsiuLVtgkl+cFF6HX/wiUfjprq62tx3//1m7NixpmzGDPPiiy+a2toa/fmE+JCaFsQI2kqDRN1GhhTAvMUdKJgvXrxoqnZVmc3Pb0Z0KDEjR44yc+YuNG+++Q/TeOli4kaD80gn4V5UL1MYVW6PtPbISrXMnDlDnn5qk1RUVCD2FeuPmlgeBoNYxzpTM4gF0lHnc8wFL2oCrhrpJLyJmzN3jjy+8XH5zebnZfl9y6W5qQGHvZDe0xNnoIBBdcXNWmoDwAES5c3Zzp07ZXTuKJk3f4GGEZcJ7BKTbWmGF/SjlozxZ2R6KI3eLkAgLjjUyocGzE2pQ+DPHwjI0aPH5PP/7JEVK1dAIOUaxtwKnU77HSa1E4RdJmi0JMj6kDvT+xzy5DBBHDaOqxZ4nYx3eiWZVubwTu0QuCCPyqTl5nGuyaf7zrqAAkpLw6EMc7ixhLqJwEFWKrAbyxQQ+HuOWxDABFV6roS4kF3QUY9WRTQTR7U4AvAM7TLBoyulpBf4+HYvqLiuKyDGTabWQCDInWpfIpgDK9HJbxIhUC2MeW4/j7IMcIPxuBl4hQZrqsmbjOIDmyGYJC159V0PecDlWpzrqtDdhPahkTaBmuTaVt3OBJcxdrEPHTfscwkNXoBEKVXXLAg8N3NMqTi42j+obzDoOgDiUcIeT7L8Fxy0XREMC0EvAAAAAElFTkSuQmCC;" parent="1" vertex="1">
          <mxGeometry x="590" y="820" width="76.35" height="108" as="geometry" />
        </mxCell>
        <mxCell id="dTkZVViNrFkLWlmM08d8-92" value="Registrasi" style="ellipse;whiteSpace=wrap;html=1;" parent="1" vertex="1">
          <mxGeometry x="900" y="660" width="100" height="60" as="geometry" />
        </mxCell>
        <mxCell id="dTkZVViNrFkLWlmM08d8-94" value="" style="shape=image;verticalLabelPosition=bottom;labelBackgroundColor=default;verticalAlign=top;aspect=fixed;imageAspect=0;image=data:image/png,iVBORw0KGgoAAAANSUhEUgAAACkAAAA6CAYAAAAtInDDAAAAAXNSR0IArs4c6QAAAARnQU1BAACxjwv8YQUAAAAJcEhZcwAADsMAAA7DAcdvqGQAABCWSURBVGhDpVlpdFXVFd7Je3mZkSEhYZAECDFAAmFGKpVBQRyAVmikSxRt/7TaZaV/Wm1d+st2uWxXK6t/uvylq4isOlBlaQhSARmUISQEENBASEIGQpI3JC9vyOn37XPvS6QMwe5wuPees88+++z5nJdkAPL/AinERfqT+vWDJPuvQzYpKUmS2ZI9+HA6hwC3xSRRTX+/MsDFsJwujIdl1P7n/H8d4AD3kWw3oUwnc/LN4dYYg4CbdwknsZFBVyJ2UPlQSXIzaPhIzEtKtk0M8PqtxIcCty/JG6ArE/jTxZ0/7SeLzkYshv3oN9gAXociydtiUqUTh/FRgteA2pqBremH0whAj5u4ZRr/PEkewb/r0rgRfC9JXrt77ccGlEkMmSQyBDUPwlNbZkO/Z7C5DAG+P5OQkD/ol5bWFmlsbJT2tlYJ9/aqGpM9KZKZkSVjx+TKuDsnSG7uaElPSxuQnmoa7/z87n6vC8okF2ZLSMhhG+Yv0WhUUlJ8uuu+vrC0t7fL2bNn5UzdGfmm/ltlsqurS4KBgERjEaWTBH2mpaXLyBEjJDMrS8aMyZeJEydJydQSKSstlezMbPF6vcokzYDrUsp2rt1IJBqRVF+qfiuTcdgZkVJSUhRBw4Q+4sqkx+ORzs4uOXXqlBw+dEiOVx+XmhO1cvXqVfGl+mTUqFEyfPhwXVjjI/7F4/3iD4SkpblR95yXnyelpdNlwYK75e6F86WoqEiys7MTjPFJ0Hf8RSJ9kpaafg2TIJriS0kg40WJExobL8nhL7+U9/71nlRVVsLwk7HAMJk0caJMnz4di5fK5KIpkpmZIbEYtgYP7+kJyTlIvLq6Ws6f/1aaLzdJ59UOSMjIpk0b5eGHHpSZM8pkxMiRyggFwacuaoU5AGTSxNFi+mb6+vpMb2+vgQTJvAkEAub3L7xgSu66y2RlZprp06aaF373W/PVV1+ajo4OxY9EItpisZjO6enpMd3+bvRFTThs6R08eNA888yvTFr6MJOVPRJ0yswfX33VtLW1mjjmKeDRH4NVg8ZgSDgO41u8P672wS62trY2+feOD2TLlr8TQ5YsWSKPPLJaiqZMkby8PKgjVTdOXHosRAFJRklOPFC9B+mPaotGYwJmYTJXYc/n5M+v/0Xq6k5KSUmxPLFxo2x88kmVZDzG8Ia5eKcmE9GBTBLi8ZgJhYIqCdin8Xd3m8pPPzXz588zsCezefNmlUY3+olDIB4Im1gkpu9sMWiAEsWmVUNRSDgcDqtm2N/V1Wk++uhjs3bNj0xR0RTzk/XrzNmvT5sINOLiWLp4ch28DwoAMFBIoh/SBHm52tkpJ0+elCNHjsq0qdNk5cqVMnv2LMmCt7reSGAQT9gTv/Vd4OlRSDECXI86JMexonr9g6tWydo1qyU/b7TU1NTKgS++kN7eMGhZdri+8oInNaW9bmd6eoYuDqki7rXB4M8rA2tWr5YpULHH47XMAJ94bEjDlgoJ8lvnMypEpC/aR/JKHxJCi0sqTITRY8m9i2XevDkwgU7ZuxdMBnt188ocaFDVnEe6yiQ7GWoIPsQmjrW3t8mF+nqdOHvOPMS6MUqADBDfC+YHPNIyTSBxxtWMjEyVOgYdOxdllBDH3/g7CyHJcRLui0hTc4vEIJhrgVrCApZJEuGCDNbMzYx3Pl+aeLEYd3P5crMEg0GNDMqYs0syzMZ30mAjN26/SsX59noZ4NOUUeIFe4LS0xvS/uxhWaBpTYSb5RrUiDoOaZNJElOJgA0VNd5ycnNk0uTJ+r1//z5pbmoi6gAun+wAEQ3gTl8MDNHDXckSiE/G3Cc3VVNbK2fPnwOD2bD1ckn2Kit2owCXD9LUHnawUYLKPQby88eoo+QjU+zft08OHz4sLS0tCVw2UlF8h4YrVbKvCwD0G/QSmwO0t7dKVdUuOXPmaymcUCjz5y9Qh9LCA3+cQ4dh44wEk3QWd6eEUaNGypw5s2X58uXScKlBduzYIVW7q6SpqRExL6yOQQESn4003BSa4vNZlQHBZZzjCPJy4cIF2fPZbvlk507k+yDS5ELEyxIbNZDztR4FLmmSH5tmHQAxZIqQxjk3XjFz1NbWmrmzZ5mM9DTEtcnm1889Z+rr6zXTDAYwofM51/1mFvJr5okgPnaZyl27zOo1awzyvAETpqKiwhw9elTHiX89IB+acbhLxjByTikxrjG+0cgpiQMHDsj27dtlH9QeDAYEqVEKCpC3UTDMKp8FSUyVnJE5Eo1H1FRIh/OCwZDUna6Tk4iFJ2GDNYi7Z06fltG5efLoo4/Kw488pHk/PT1dYyrXpQYGA+n8TxVENaoHwxLY54H30bPr6urgQPvB6F45ceIEUlg/Kpt8GTt2rOTm5Modd7Asg12h+AiHIxIMhaQXHtyKeHu5uVnLuczMTJk9a5b84J57ZNHCRVJQWCDpGemqWvV6uLjaJAIpN6pRJA6bdiXJRsdhGCAyG+2DNaLXKeHoOMeOHUPw3SvNWLit7Yrm9y4E5EiUtmdjnes6Pl8ycny+jB49GtEiV4oQLe5btkyml5VJZnqmxUUV70WSADqcwzoauIGIqBHrHwMFhmPcYcRKTiLD4F5CUG86AjMZVUN2NtTd3SXHj7OurJH6+gvScvmyfA4pwwZlYuEkKS8vR0WeI+Wz58AkymX8+HGQZBZUiwrdWY+Nm4FI4IFgwzEVdWsyjHVwKFJkWwiEowaFrS0O2AVHUidwkz2eLBT8/oCOu98sw5AETGtri3lw1UOmsGCCeemlP6gzsF292onCBQ7p0OW86zlYb29PAofAftJmn5UngHaoYQB/tAPg2QHszA0xxKEkaD+0Y0qbjQk8My0LpZuPu06EENr4MARrZhotHhy6zN8cd32BNJiOGQZZ2qmzYN0U9CfjnO4oHQ1vlLSKWz8HYiYH2M9vN/4R+M3FWTcyY/B7YG+WDvHZr98JOjbna3Nw+SQdPfLqF+hjLk8MCUm6QKPFfm2ZxAO8A7oI+ljKKXNcGP163sY7P0I4MnADrJa0bzAoskOHn2TMaZQmQTeERpu0yUURHSbRmQSVEYkTeCyN98cQjmx5xcZ+Vu58J2GqhHk6CmKMADQBFMrQKMIH6HD8Vs3SZKay8ZWNAuJlAulxwyoQ5RFhwN6IWcmQWdoIJdLV1a2tuzuAKimqtGDkcuVKu54W4RhypaNDx9Phvcy/YYzDwW7ZAogcTA4hxGFXmmSKtpyammZDIFJtIgSpMZEDPiHVCAa/PntGtryxRc59U6+hCD6vUuQUSiIlBYTw1w9per2pKBjqEMBDkpOTI2MQ5IcCI3A2X7hggTz9s58jnuZCOD4bN8kzwhKZs5LkohQ9FrY8066sk4T7+gTnD2SRHjCA1turfbpzqLYPabST0oRkIxGqPi59SHHI7UNqUaiVhzYyZ9MxnA9/VDnUq06kkiRjrrgpSXtOSdLbik93VUoQqiGjnMwsQKfy4OnDOb0PlXUw1KNqeeutt5XZRYsWygMrV1l6NwMojmmxYMIEuQepkqFpsDPB19UUKTkFdOqTQRYSte+xqAkE/ehDlYI+4rARB1LQk6Ab6BmwFy9ebCZNmozz9J/sOf5WjUkEtJhEuCaTAgM7QfnhP/SrutGhqibQcdydQHCSlZmtsZDmwD6O2eDrU4ky17tmQskDCRJBUGcxc6uG1WlSvPkgXTorVU5a6t0sLrC2MqlujsjOMw56lRkikoA7ziCrRYdLAE8exlK8trziItlZmVq5uBu+FXAdNm6a8xN9CODeJPQhb+uFhY4AyLF7ZLVMO1nCDmLxAa/mGG1QPW8QHo/x0FJC6gngK5EdgC71wEd6nJtYB6Df7rU1/ikvzpgOuju6dqICP6/p4iJuI1OcQ+dipmKfK3GLTOa4SfTZHsUnE4Mh0ed067d9HRrortAikWhiQ5ScSgbN56NJ2N1wjNJW9THVcjPAdRmnWRBnKHBbTBJ47xhCyOHlUjLUq8UFbJKmEupBwZzslVQ4FTfD6odVDTNUNI4xFCF0DvbxuPAdk7gJ3BaT1ovjOCpkowi2hh1DjmdQpj4jfT3KgOvtfJJ5pjgyxDMP+xkPGWOvVfWN4LaYpHroYFS32hq0xYWYhY4eOw4MZKC+XjmHQ3919Qll2PV865j2XX8Ru9bAbwKelwHO+5CAzLE6Yjzjgi0trXLo0EH58IMPcZQ4IYGAH+mzV7rxBLJeOWs+hg0z1brRQTcJGIpdDhQYQwB1AseOSJzBe9euKtm2bRsYPIYUl6UM8XSJbCTFxVNkw083yLx586WwcCIq/2y9IEjPSKNrKbNDUjmZvF0Ao6a7229eefkVU1xcbDIyMkxpaZnZufMjc+lSg9m69R1z7w/vNdiItvXrfmwqKz/Rebx88AfshcFQ4bYlSU9taLgor732uh5tWakvunuR/OKXz8q0aSV60Kckz507L5VVu+SdrVtRDHfhtHinLF2yTDY++YRMLJggacAbquMkqiC3cSJVYUftQzMG3nnRxIurt/+5TfZ+vkcKCgpl2bKlsmLF/frThw8eDzvQKXSmxqYmvcXdvXu3HIdj8bg8d+48WbXqAUExIuPGjYetetReGT8T6qfY2Jw9WMchg7Q1ZwEGXQJTk9ohjP3ixQb5bM9nsv3dd2GHu2Xy5Emybt16Wbt2rcycOVPSEP+4EW6UK3iR00eMGC5FRZMlPz9ffAhDHVc65MiRI9J8uRmVvB+BX6xjsSABuJLl+upQ+EdNqSTJCIkzRLgxzvU6Fh3NzZfl4493yvvvvy+nT5+S0ulTZdNTT8vSpcv0Bpi7ZgESMzElyhDDBXl28fEiFnSam1tk//4vZNs7W6Wm9oRKmtct69etk2mgN6WoWCOGm5EYS/nUXzPwcl0AsvH7/aa+/lvz7DPPmoKCApM3Os88VlFhjh87pgf3cNheDBDoFO3tbXoTNxhYb/LgTzzS7Oi4Yv76tzdMaVmZijw3N9c8tmGDabh0SS8N+OsGfzsiuLVtgkl+cFF6HX/wiUfjprq62tx3//1m7NixpmzGDPPiiy+a2toa/fmE+JCaFsQI2kqDRN1GhhTAvMUdKJgvXrxoqnZVmc3Pb0Z0KDEjR44yc+YuNG+++Q/TeOli4kaD80gn4V5UL1MYVW6PtPbISrXMnDlDnn5qk1RUVCD2FeuPmlgeBoNYxzpTM4gF0lHnc8wFL2oCrhrpJLyJmzN3jjy+8XH5zebnZfl9y6W5qQGHvZDe0xNnoIBBdcXNWmoDwAES5c3Zzp07ZXTuKJk3f4GGEZcJ7BKTbWmGF/SjlozxZ2R6KI3eLkAgLjjUyocGzE2pQ+DPHwjI0aPH5PP/7JEVK1dAIOUaxtwKnU77HSa1E4RdJmi0JMj6kDvT+xzy5DBBHDaOqxZ4nYx3eiWZVubwTu0QuCCPyqTl5nGuyaf7zrqAAkpLw6EMc7ixhLqJwEFWKrAbyxQQ+HuOWxDABFV6roS4kF3QUY9WRTQTR7U4AvAM7TLBoyulpBf4+HYvqLiuKyDGTabWQCDInWpfIpgDK9HJbxIhUC2MeW4/j7IMcIPxuBl4hQZrqsmbjOIDmyGYJC159V0PecDlWpzrqtDdhPahkTaBmuTaVt3OBJcxdrEPHTfscwkNXoBEKVXXLAg8N3NMqTi42j+obzDoOgDiUcIeT7L8Fxy0XREMC0EvAAAAAElFTkSuQmCC;" parent="1" vertex="1">
          <mxGeometry x="590" y="1012" width="76.35" height="108" as="geometry" />
        </mxCell>
        <mxCell id="dTkZVViNrFkLWlmM08d8-95" value="Login" style="ellipse;whiteSpace=wrap;html=1;" parent="1" vertex="1">
          <mxGeometry x="900" y="738" width="100" height="60" as="geometry" />
        </mxCell>
        <mxCell id="dTkZVViNrFkLWlmM08d8-96" value="Melihat Daftar&lt;div&gt;Ruangan&lt;/div&gt;" style="ellipse;whiteSpace=wrap;html=1;" parent="1" vertex="1">
          <mxGeometry x="900" y="820" width="100" height="60" as="geometry" />
        </mxCell>
        <mxCell id="dTkZVViNrFkLWlmM08d8-97" value="Booking" style="ellipse;whiteSpace=wrap;html=1;" parent="1" vertex="1">
          <mxGeometry x="900" y="906" width="100" height="60" as="geometry" />
        </mxCell>
        <mxCell id="dTkZVViNrFkLWlmM08d8-99" value="Melihat Riwayat&amp;nbsp;&lt;div&gt;Booking&lt;/div&gt;" style="ellipse;whiteSpace=wrap;html=1;" parent="1" vertex="1">
          <mxGeometry x="900" y="990" width="100" height="60" as="geometry" />
        </mxCell>
        <mxCell id="dTkZVViNrFkLWlmM08d8-100" value="Approval&amp;nbsp;&lt;div&gt;Booking&lt;/div&gt;" style="ellipse;whiteSpace=wrap;html=1;" parent="1" vertex="1">
          <mxGeometry x="900" y="1070" width="100" height="60" as="geometry" />
        </mxCell>
        <mxCell id="dTkZVViNrFkLWlmM08d8-101" value="Mengelola&amp;nbsp;&lt;div&gt;Booking&lt;/div&gt;" style="ellipse;whiteSpace=wrap;html=1;" parent="1" vertex="1">
          <mxGeometry x="900" y="1150" width="100" height="60" as="geometry" />
        </mxCell>
        <mxCell id="dTkZVViNrFkLWlmM08d8-102" value="Melihat&lt;div&gt;Request Booking&lt;/div&gt;" style="ellipse;whiteSpace=wrap;html=1;" parent="1" vertex="1">
          <mxGeometry x="900" y="1230" width="100" height="60" as="geometry" />
        </mxCell>
        <mxCell id="dTkZVViNrFkLWlmM08d8-104" value="" style="endArrow=classic;html=1;rounded=0;exitX=1;exitY=0.5;exitDx=0;exitDy=0;entryX=0.021;entryY=0.679;entryDx=0;entryDy=0;entryPerimeter=0;" parent="1" source="dTkZVViNrFkLWlmM08d8-90" target="dTkZVViNrFkLWlmM08d8-92" edge="1">
          <mxGeometry width="50" height="50" relative="1" as="geometry">
            <mxPoint x="790" y="1030" as="sourcePoint" />
            <mxPoint x="840" y="980" as="targetPoint" />
          </mxGeometry>
        </mxCell>
        <mxCell id="dTkZVViNrFkLWlmM08d8-105" value="" style="endArrow=classic;html=1;rounded=0;exitX=1;exitY=0.5;exitDx=0;exitDy=0;entryX=0;entryY=0.5;entryDx=0;entryDy=0;" parent="1" source="dTkZVViNrFkLWlmM08d8-90" target="dTkZVViNrFkLWlmM08d8-95" edge="1">
          <mxGeometry width="50" height="50" relative="1" as="geometry">
            <mxPoint x="790" y="1030" as="sourcePoint" />
            <mxPoint x="840" y="980" as="targetPoint" />
          </mxGeometry>
        </mxCell>
        <mxCell id="dTkZVViNrFkLWlmM08d8-106" value="" style="endArrow=classic;html=1;rounded=0;exitX=1;exitY=0.5;exitDx=0;exitDy=0;entryX=0;entryY=0.5;entryDx=0;entryDy=0;" parent="1" source="dTkZVViNrFkLWlmM08d8-90" target="dTkZVViNrFkLWlmM08d8-96" edge="1">
          <mxGeometry width="50" height="50" relative="1" as="geometry">
            <mxPoint x="790" y="1030" as="sourcePoint" />
            <mxPoint x="840" y="980" as="targetPoint" />
          </mxGeometry>
        </mxCell>
        <mxCell id="dTkZVViNrFkLWlmM08d8-107" value="" style="endArrow=classic;html=1;rounded=0;exitX=1;exitY=0.5;exitDx=0;exitDy=0;entryX=0;entryY=0.5;entryDx=0;entryDy=0;" parent="1" source="dTkZVViNrFkLWlmM08d8-90" target="dTkZVViNrFkLWlmM08d8-97" edge="1">
          <mxGeometry width="50" height="50" relative="1" as="geometry">
            <mxPoint x="790" y="1030" as="sourcePoint" />
            <mxPoint x="840" y="980" as="targetPoint" />
          </mxGeometry>
        </mxCell>
        <mxCell id="dTkZVViNrFkLWlmM08d8-108" value="" style="endArrow=classic;html=1;rounded=0;exitX=1;exitY=0.5;exitDx=0;exitDy=0;entryX=0;entryY=0.5;entryDx=0;entryDy=0;" parent="1" source="dTkZVViNrFkLWlmM08d8-90" target="dTkZVViNrFkLWlmM08d8-99" edge="1">
          <mxGeometry width="50" height="50" relative="1" as="geometry">
            <mxPoint x="680" y="880" as="sourcePoint" />
            <mxPoint x="850" y="1030" as="targetPoint" />
          </mxGeometry>
        </mxCell>
        <mxCell id="dTkZVViNrFkLWlmM08d8-109" value="" style="endArrow=classic;html=1;rounded=0;exitX=1;exitY=0.5;exitDx=0;exitDy=0;entryX=0;entryY=1;entryDx=0;entryDy=0;fillColor=#FF0000;" parent="1" source="dTkZVViNrFkLWlmM08d8-94" target="dTkZVViNrFkLWlmM08d8-95" edge="1">
          <mxGeometry width="50" height="50" relative="1" as="geometry">
            <mxPoint x="790" y="1030" as="sourcePoint" />
            <mxPoint x="840" y="980" as="targetPoint" />
          </mxGeometry>
        </mxCell>
        <mxCell id="dTkZVViNrFkLWlmM08d8-110" value="User" style="text;html=1;align=center;verticalAlign=middle;resizable=0;points=[];autosize=1;strokeColor=none;fillColor=none;" parent="1" vertex="1">
          <mxGeometry x="595" y="938" width="50" height="30" as="geometry" />
        </mxCell>
        <mxCell id="dTkZVViNrFkLWlmM08d8-111" value="Admin" style="text;html=1;align=center;verticalAlign=middle;resizable=0;points=[];autosize=1;strokeColor=none;fillColor=none;" parent="1" vertex="1">
          <mxGeometry x="610" y="1138" width="60" height="30" as="geometry" />
        </mxCell>
        <mxCell id="nLI3Yei72jbytWsrCFl_-1" value="" style="endArrow=classic;html=1;rounded=0;exitX=1;exitY=0.5;exitDx=0;exitDy=0;entryX=0;entryY=1;entryDx=0;entryDy=0;" parent="1" source="dTkZVViNrFkLWlmM08d8-94" target="dTkZVViNrFkLWlmM08d8-96" edge="1">
          <mxGeometry width="50" height="50" relative="1" as="geometry">
            <mxPoint x="1110" y="660" as="sourcePoint" />
            <mxPoint x="1160" y="610" as="targetPoint" />
          </mxGeometry>
        </mxCell>
        <mxCell id="nLI3Yei72jbytWsrCFl_-2" value="" style="endArrow=classic;html=1;rounded=0;entryX=0;entryY=0.5;entryDx=0;entryDy=0;exitX=1;exitY=0.5;exitDx=0;exitDy=0;" parent="1" source="dTkZVViNrFkLWlmM08d8-94" target="dTkZVViNrFkLWlmM08d8-100" edge="1">
          <mxGeometry width="50" height="50" relative="1" as="geometry">
            <mxPoint x="670" y="1070" as="sourcePoint" />
            <mxPoint x="1160" y="610" as="targetPoint" />
          </mxGeometry>
        </mxCell>
        <mxCell id="nLI3Yei72jbytWsrCFl_-3" value="" style="endArrow=classic;html=1;rounded=0;exitX=1;exitY=0.5;exitDx=0;exitDy=0;entryX=0;entryY=0.5;entryDx=0;entryDy=0;" parent="1" source="dTkZVViNrFkLWlmM08d8-94" target="dTkZVViNrFkLWlmM08d8-101" edge="1">
          <mxGeometry width="50" height="50" relative="1" as="geometry">
            <mxPoint x="1110" y="810" as="sourcePoint" />
            <mxPoint x="1160" y="760" as="targetPoint" />
          </mxGeometry>
        </mxCell>
        <mxCell id="nLI3Yei72jbytWsrCFl_-4" value="" style="endArrow=classic;html=1;rounded=0;exitX=1;exitY=0.5;exitDx=0;exitDy=0;entryX=0;entryY=0.5;entryDx=0;entryDy=0;" parent="1" source="dTkZVViNrFkLWlmM08d8-94" target="dTkZVViNrFkLWlmM08d8-102" edge="1">
          <mxGeometry width="50" height="50" relative="1" as="geometry">
            <mxPoint x="1110" y="850" as="sourcePoint" />
            <mxPoint x="1160" y="800" as="targetPoint" />
          </mxGeometry>
        </mxCell>
      </root>
    </mxGraphModel>
  </diagram>
</mxfile>
